# xmcd
#
# Track frame offsets: 
#        150
#        6267
#        21523
#        37616
#        49455
#        64510
#        76377
#        91124
#
# Disc length: 1405 seconds
#
# Revision: 2
# Processed by: cddbd v1.5.2PL0 Copyright (c) Steve Scherf et al.
# Submitted via: ExactAudioCopy v0.99pb3
#
DISCID=57057b08
DTITLE=Coffinshakers, The - Dark Wings Over Finland
DYEAR=2007
DGENRE=Country
TTITLE0=Dracula Has Risen From The Grave
TTITLE1=Black Sunday
TTITLE2=Until The End
TTITLE3=Pale Man In Black
TTITLE4=Halloween (Remix)
TTITLE5=The Coffinshaker
TTITLE6=Everything I Touch Turns To Tears
TTITLE7=Bad Dreams, Baby
EXTD=
EXTT0=
EXTT1=
EXTT2=
EXTT3=
EXTT4=
EXTT5=
EXTT6=
EXTT7=
PLAYORDER=
